<svg width="70" height="70" viewBox="0 0 70 70" fill="none" xmlns="http://www.w3.org/2000/svg">
<circle cx="35" cy="35" r="35" fill="white"/>
<path d="M28.2956 26.2103C28.2956 24.4875 26.899 23.091 25.1762 23.091C23.4535 23.091 22.0569 24.4875 22.0569 26.2103C22.0569 27.933 23.4535 29.3296 25.1762 29.3296C26.899 29.3296 28.2956 27.933 28.2956 26.2103Z" stroke="#4C5059"/>
<path d="M29.481 41.2679L29.8828 41.6582L30.2251 41.2148L37.5753 31.6946L49.5229 47.9433H20.5062L27.2976 39.1468L29.481 41.2679Z" stroke="#4C5059"/>
<rect x="15.3529" y="15.3523" width="1.96477" height="39.2955" fill="#4C5059"/>
<path d="M52.6831 15.3523L54.6479 17.3171V54.6477H52.6831V15.3523Z" fill="#4C5059"/>
<rect x="54.6478" y="52.6827" width="1.96477" height="39.2955" transform="rotate(90 54.6478 52.6827)" fill="#4C5059"/>
<rect x="50.7181" y="15.3523" width="1.96477" height="35.3659" transform="rotate(90 50.7181 15.3523)" fill="#4C5059"/>
</svg>
