<svg width="40" height="40" viewBox="0 0 40 40" fill="none" xmlns="http://www.w3.org/2000/svg">
<circle cx="20" cy="20" r="20" fill="#CC0C0C"/>
<path d="M21.6503 6L19.3504 8.23554V21.6488L21.6503 19.4132V13.9362C23.8547 14.2203 25.8772 15.2751 27.3395 16.9035C28.8017 18.5318 29.6037 20.6221 29.5954 22.7835C29.5871 24.9449 28.7691 27.0294 27.2943 28.6471C25.8196 30.2647 23.7891 31.3049 21.5826 31.573C19.3761 31.8411 17.1446 31.3187 15.3056 30.1037C13.4665 28.8886 12.1458 27.064 11.5904 24.9711C11.035 22.8782 11.2829 20.6603 12.2878 18.7322C13.2927 16.8041 14.9858 15.2978 17.0504 14.4951V12.1477C14.705 12.8292 12.6513 14.2336 11.1992 16.1491C9.74711 18.0647 8.97542 20.3873 9.0006 22.7666C8.98949 24.932 9.62573 27.0539 10.832 28.8745C12.0383 30.695 13.7626 32.1358 15.7955 33.0218C17.8284 33.9077 20.0822 34.2006 22.2831 33.8648C24.484 33.5291 26.5372 32.5792 28.1932 31.1306C29.8491 29.682 31.0365 27.7971 31.611 25.7048C32.1856 23.6126 32.1225 21.4033 31.4295 19.3453C30.7365 17.2872 29.4433 15.4692 27.7073 14.1121C25.9712 12.755 23.867 11.9172 21.6503 11.7006V6Z" fill="white"/>
</svg>
