<svg width="70" height="70" viewBox="0 0 70 70" fill="none" xmlns="http://www.w3.org/2000/svg">
<circle cx="35" cy="35" r="35" fill="#F7F7F7"/>
<path d="M35.8909 36.2718V29.4655H38.5762C39.0924 29.4655 39.5322 29.5641 39.8956 29.7613C40.2589 29.9562 40.5359 30.2276 40.7264 30.5755C40.9192 30.9211 41.0156 31.3199 41.0156 31.7719C41.0156 32.2239 40.9181 32.6227 40.7231 32.9683C40.5281 33.314 40.2456 33.5832 39.8756 33.7759C39.5078 33.9687 39.0625 34.0651 38.5396 34.0651H36.8281V32.9118H38.307C38.5839 32.9118 38.8121 32.8642 38.9916 32.7689C39.1733 32.6714 39.3084 32.5374 39.3971 32.3668C39.4879 32.194 39.5333 31.9957 39.5333 31.7719C39.5333 31.5459 39.4879 31.3487 39.3971 31.1803C39.3084 31.0097 39.1733 30.8779 38.9916 30.7849C38.8099 30.6896 38.5795 30.642 38.3003 30.642H37.3299V36.2718H35.8909ZM41.691 30.6519V29.4655H47.281V30.6519H45.1972V36.2718H43.7748V30.6519H41.691ZM48.1285 36.2718V35.4177L51.525 30.6519H48.1218V29.4655H53.3329V30.3196L49.9331 35.0853H53.3395V36.2718H48.1285Z" fill="#C8C8C8"/>
<path d="M24.5949 30.2343C19.4228 31.3921 16 33.4062 16 35.6975V40.0417C16 37.7504 19.4228 35.7364 24.5949 34.5786V30.2343Z" fill="#C8C8C8"/>
<path d="M38.8311 28.1912C40.2775 28.2819 41.7159 28.477 43.1356 28.7749C42.2539 21.3367 39.912 16.0195 37.1671 16.0195H32.9432C35.6122 16 37.9019 21.0496 38.8311 28.1912Z" fill="#C8C8C8"/>
<path d="M37.9162 47.2999C36.7547 51.7901 34.9533 54.6749 32.9337 54.6749H37.1672C39.2863 54.6749 41.1636 51.5031 42.3155 46.6334C40.8667 46.9642 39.3964 47.1869 37.9162 47.2999Z" fill="#C8C8C8"/>
<path d="M53.6884 35.3375C53.6884 38.9326 45.2547 41.8515 34.8442 41.8515C24.4337 41.8515 16 38.9326 16 35.3375V39.6818C16 43.2769 24.4384 46.1909 34.8442 46.1909C45.25 46.1909 53.6884 43.272 53.6884 39.6818V35.3375Z" fill="#C8C8C8"/>
<path d="M28.5438 27.0285L30.5207 30.4873C30.7624 20.4805 33.4836 16 36.8305 16H32.5971C29.2312 16 26.5006 20.568 26.2872 30.6576L28.5438 27.0285Z" fill="#C8C8C8"/>
<path d="M30.8193 37.3028L32.3838 37.3369L30.4875 33.8245L28.5912 30.3073L26.5717 33.7467L24.5474 37.1812L26.5622 37.2201C27.3539 45.1838 29.7242 54.675 32.5829 54.675H36.8163C33.9814 54.675 31.6205 45.2275 30.8193 37.3028Z" fill="#C8C8C8"/>
</svg>
