<svg width="70" height="70" viewBox="0 0 70 70" fill="none" xmlns="http://www.w3.org/2000/svg">
<circle cx="35" cy="35" r="35" fill="white"/>
<path d="M24.0931 30.4432C18.8488 31.5931 15.375 33.585 15.375 35.8463V40.1429C15.375 37.8815 18.8488 35.8896 24.0931 34.7397V30.4432Z" fill="#010101"/>
<path d="M38.5463 28.437C40.0119 28.5211 41.47 28.706 42.9102 28.9903C42.0153 21.6338 39.6433 16.375 36.8528 16.375H32.5562C35.2746 16.375 37.5985 21.374 38.5463 28.437Z" fill="#010101"/>
<path d="M37.6178 47.3358C36.4342 51.7766 34.6107 54.6249 32.5562 54.6249H36.8528C39.0082 54.6249 40.9135 51.4928 42.0827 46.6766C40.6116 47.0007 39.1197 47.221 37.6178 47.3358Z" fill="#010101"/>
<path d="M53.625 35.5C53.625 39.0604 45.0609 41.9424 34.5 41.9424C23.9392 41.9424 15.375 39.0556 15.375 35.5V39.7965C15.375 43.3569 23.9343 46.2389 34.5 46.2389C45.0657 46.2389 53.625 43.3521 53.625 39.7965V35.5Z" fill="#010101"/>
<path d="M28.1058 27.2823L30.1121 30.7079C30.3575 20.811 33.1192 16.375 36.516 16.375H32.2195C28.8034 16.375 26.0273 20.8976 25.8108 30.8715L28.1058 27.2823Z" fill="#010101"/>
<path d="M30.4104 37.4485L31.9981 37.4774L30.0736 34.0036L28.1491 30.5298L26.0994 33.9266L24.0498 37.3234L26.0898 37.3667C26.8981 45.2429 29.299 54.625 32.205 54.625H36.5015C33.6195 54.625 31.2235 45.2814 30.4104 37.4485Z" fill="#010101"/>
<path d="M36.0956 30.5799V37.1627H35.2985V31.4156H35.2599L33.6528 32.4828V31.6728L35.2985 30.5799H36.0956ZM40.0974 37.2527C39.6559 37.2527 39.2659 37.1745 38.9274 37.0181C38.5909 36.8595 38.3285 36.642 38.1399 36.3656C37.9513 36.087 37.8581 35.7699 37.8602 35.4142C37.8581 35.1356 37.9127 34.8784 38.0242 34.6427C38.1356 34.4049 38.2877 34.2067 38.4806 34.0481C38.6756 33.8874 38.8931 33.7856 39.1331 33.7427V33.7042C38.8181 33.6227 38.5674 33.446 38.381 33.1738C38.1945 32.8995 38.1024 32.5877 38.1045 32.2385C38.1024 31.9042 38.187 31.6053 38.3585 31.3417C38.5299 31.0781 38.7656 30.8703 39.0656 30.7181C39.3677 30.566 39.7117 30.4899 40.0974 30.4899C40.4788 30.4899 40.8195 30.566 41.1195 30.7181C41.4195 30.8703 41.6552 31.0781 41.8266 31.3417C42.0002 31.6053 42.0881 31.9042 42.0902 32.2385C42.0881 32.5877 41.9927 32.8995 41.8041 33.1738C41.6177 33.446 41.3702 33.6227 41.0616 33.7042V33.7427C41.2995 33.7856 41.5138 33.8874 41.7045 34.0481C41.8952 34.2067 42.0474 34.4049 42.1609 34.6427C42.2745 34.8784 42.3324 35.1356 42.3345 35.4142C42.3324 35.7699 42.2359 36.087 42.0452 36.3656C41.8566 36.642 41.5941 36.8595 41.2577 37.0181C40.9234 37.1745 40.5367 37.2527 40.0974 37.2527ZM40.0974 36.5456C40.3952 36.5456 40.6524 36.4974 40.8688 36.4009C41.0852 36.3045 41.2524 36.1684 41.3702 35.9927C41.4881 35.817 41.5481 35.6113 41.5502 35.3756C41.5481 35.127 41.4838 34.9074 41.3574 34.7167C41.2309 34.526 41.0584 34.376 40.8399 34.2667C40.6234 34.1574 40.3759 34.1027 40.0974 34.1027C39.8167 34.1027 39.5659 34.1574 39.3452 34.2667C39.1267 34.376 38.9542 34.526 38.8277 34.7167C38.7034 34.9074 38.6424 35.127 38.6445 35.3756C38.6424 35.6113 38.6992 35.817 38.8149 35.9927C38.9327 36.1684 39.1009 36.3045 39.3195 36.4009C39.5381 36.4974 39.7974 36.5456 40.0974 36.5456ZM40.0974 33.4213C40.3331 33.4213 40.542 33.3742 40.7242 33.2799C40.9084 33.1856 41.0531 33.0538 41.1581 32.8845C41.2631 32.7152 41.3166 32.517 41.3188 32.2899C41.3166 32.067 41.2641 31.8731 41.1613 31.7081C41.0584 31.541 40.9159 31.4124 40.7338 31.3224C40.5517 31.2303 40.3395 31.1842 40.0974 31.1842C39.8509 31.1842 39.6356 31.2303 39.4513 31.3224C39.267 31.4124 39.1245 31.541 39.0238 31.7081C38.9231 31.8731 38.8738 32.067 38.8759 32.2899C38.8738 32.517 38.9242 32.7152 39.027 32.8845C39.132 33.0538 39.2767 33.1856 39.4609 33.2799C39.6452 33.3742 39.8574 33.4213 40.0974 33.4213ZM45.7135 37.2527C45.2292 37.2527 44.8167 37.1209 44.476 36.8574C44.1353 36.5917 43.8749 36.207 43.6949 35.7034C43.5149 35.1977 43.4249 34.587 43.4249 33.8713C43.4249 33.1599 43.5149 32.5524 43.6949 32.0488C43.8771 31.5431 44.1385 31.1574 44.4792 30.8917C44.8221 30.6238 45.2335 30.4899 45.7135 30.4899C46.1935 30.4899 46.6038 30.6238 46.9446 30.8917C47.2874 31.1574 47.5488 31.5431 47.7288 32.0488C47.911 32.5524 48.002 33.1599 48.002 33.8713C48.002 34.587 47.912 35.1977 47.7321 35.7034C47.5521 36.207 47.2917 36.5917 46.951 36.8574C46.6103 37.1209 46.1978 37.2527 45.7135 37.2527ZM45.7135 36.5456C46.1935 36.5456 46.5663 36.3142 46.8321 35.8513C47.0978 35.3884 47.2306 34.7285 47.2306 33.8713C47.2306 33.3013 47.1696 32.816 47.0474 32.4153C46.9274 32.0145 46.7538 31.7092 46.5267 31.4992C46.3017 31.2892 46.0306 31.1842 45.7135 31.1842C45.2378 31.1842 44.866 31.4188 44.5981 31.8881C44.3303 32.3553 44.1964 33.0163 44.1964 33.8713C44.1964 34.4413 44.2564 34.9256 44.3764 35.3242C44.4964 35.7227 44.6689 36.0259 44.8939 36.2338C45.121 36.4417 45.3942 36.5456 45.7135 36.5456ZM50.5992 33.4856C50.327 33.4856 50.0785 33.4192 49.8535 33.2863C49.6306 33.1535 49.4528 32.9756 49.3199 32.7527C49.187 32.5278 49.1206 32.2792 49.1206 32.007C49.1206 31.7349 49.187 31.4874 49.3199 31.2645C49.4528 31.0395 49.6306 30.8606 49.8535 30.7278C50.0785 30.5949 50.327 30.5285 50.5992 30.5285C50.8713 30.5285 51.1188 30.5949 51.3417 30.7278C51.5667 30.8606 51.7456 31.0395 51.8785 31.2645C52.0113 31.4874 52.0777 31.7349 52.0777 32.007C52.0777 32.2792 52.0113 32.5278 51.8785 32.7527C51.7456 32.9756 51.5667 33.1535 51.3417 33.2863C51.1188 33.4192 50.8713 33.4856 50.5992 33.4856ZM50.5992 32.8427C50.7535 32.8427 50.8938 32.8052 51.0202 32.7302C51.1467 32.6552 51.2474 32.5545 51.3224 32.4281C51.3974 32.3017 51.4349 32.1613 51.4349 32.007C51.4349 31.8528 51.3974 31.7124 51.3224 31.586C51.2474 31.4595 51.1467 31.3588 51.0202 31.2838C50.8938 31.2088 50.7535 31.1713 50.5992 31.1713C50.4449 31.1713 50.3045 31.2088 50.1781 31.2838C50.0517 31.3588 49.951 31.4595 49.876 31.586C49.801 31.7124 49.7635 31.8528 49.7635 32.007C49.7635 32.1613 49.801 32.3017 49.876 32.4281C49.951 32.5545 50.0517 32.6552 50.1781 32.7302C50.3045 32.8052 50.4449 32.8427 50.5992 32.8427Z" fill="#010101"/>
</svg>
