<svg width="70" height="70" viewBox="0 0 70 70" fill="none" xmlns="http://www.w3.org/2000/svg">
<circle cx="35" cy="35" r="35" fill="white"/>
<path d="M36.8909 35.2718V28.4655H39.5762C40.0924 28.4655 40.5322 28.5641 40.8956 28.7613C41.2589 28.9562 41.5359 29.2276 41.7264 29.5755C41.9192 29.9211 42.0156 30.3199 42.0156 30.7719C42.0156 31.2239 41.9181 31.6227 41.7231 31.9683C41.5281 32.314 41.2456 32.5832 40.8756 32.7759C40.5078 32.9687 40.0625 33.0651 39.5396 33.0651H37.8281V31.9118H39.307C39.5839 31.9118 39.8121 31.8642 39.9916 31.7689C40.1733 31.6714 40.3084 31.5374 40.3971 31.3668C40.4879 31.194 40.5333 30.9957 40.5333 30.7719C40.5333 30.5459 40.4879 30.3487 40.3971 30.1803C40.3084 30.0097 40.1733 29.8779 39.9916 29.7849C39.8099 29.6896 39.5795 29.642 39.3003 29.642H38.3299V35.2718H36.8909ZM42.691 29.6519V28.4655H48.281V29.6519H46.1972V35.2718H44.7748V29.6519H42.691ZM49.1285 35.2718V34.4177L52.525 29.6519H49.1218V28.4655H54.3329V29.3196L50.9331 34.0853H54.3395V35.2718H49.1285Z" fill="black"/>
<path d="M25.5949 29.2343C20.4228 30.3921 17 32.4062 17 34.6975V39.0417C17 36.7504 20.4228 34.7364 25.5949 33.5786V29.2343Z" fill="black"/>
<path d="M39.8311 27.1912C41.2775 27.2819 42.7159 27.477 44.1356 27.7749C43.2539 20.3367 40.912 15.0195 38.1671 15.0195H33.9432C36.6122 15 38.9019 20.0496 39.8311 27.1912Z" fill="black"/>
<path d="M38.9162 46.2999C37.7547 50.7901 35.9533 53.6749 33.9337 53.6749H38.1672C40.2863 53.6749 42.1636 50.5031 43.3155 45.6334C41.8667 45.9642 40.3964 46.1869 38.9162 46.2999Z" fill="black"/>
<path d="M54.6884 34.3375C54.6884 37.9326 46.2547 40.8515 35.8442 40.8515C25.4337 40.8515 17 37.9326 17 34.3375V38.6818C17 42.2769 25.4384 45.1909 35.8442 45.1909C46.25 45.1909 54.6884 42.272 54.6884 38.6818V34.3375Z" fill="black"/>
<path d="M29.5438 26.0285L31.5207 29.4873C31.7624 19.4805 34.4836 15 37.8305 15H33.5971C30.2312 15 27.5006 19.568 27.2872 29.6576L29.5438 26.0285Z" fill="black"/>
<path d="M31.8193 36.3028L33.3838 36.3369L31.4875 32.8245L29.5912 29.3073L27.5717 32.7467L25.5474 36.1812L27.5622 36.2201C28.3539 44.1838 30.7242 53.675 33.5829 53.675H37.8163C34.9814 53.675 32.6205 44.2275 31.8193 36.3028Z" fill="black"/>
</svg>
