<svg width="40" height="40" viewBox="0 0 40 40" fill="none" xmlns="http://www.w3.org/2000/svg">
<path d="M40 20C40 31.0457 31.0457 40 20 40C8.95431 40 0 31.0457 0 20C0 8.95431 8.95431 0 20 0C31.0457 0 40 8.95431 40 20Z" fill="white"/>
<path d="M13.1376 17.7154H15.4641V8.91077H6.76465V11.2654H13.1376V17.7154Z" fill="#4C5059"/>
<path d="M19.8513 7.05884V9.41349C22.218 9.40835 24.5169 10.2132 26.3745 11.6972C28.2322 13.1813 29.5396 15.2575 30.0842 17.5885C30.6289 19.9194 30.3789 22.3683 29.3749 24.5374C28.3708 26.7064 26.6717 28.4682 24.5535 29.5365C22.4352 30.6049 20.0224 30.917 17.7067 30.4223C15.3911 29.9275 13.3088 28.6549 11.7979 26.8112C10.2871 24.9675 9.43656 22.661 9.38443 20.2663C9.3323 17.8716 10.0817 15.5293 11.5108 13.6201H8.73583C7.35015 16.0951 6.80885 18.9632 7.19564 21.7809C7.58244 24.5985 8.87577 27.2087 10.8756 29.2076C12.8754 31.2066 15.4703 32.4829 18.2589 32.8393C21.0475 33.1956 23.8744 32.612 26.3024 31.1788C28.7303 29.7457 30.6241 27.5427 31.6907 24.9108C32.7573 22.2788 32.9373 19.3645 32.2029 16.6186C31.4685 13.8727 29.8605 11.4483 27.6278 9.7202C25.3951 7.99214 22.6621 7.0568 19.8513 7.05884Z" fill="#4C5059"/>
</svg>
