<svg width="61" height="63" viewBox="0 0 61 63" fill="none" xmlns="http://www.w3.org/2000/svg">
<path d="M30.6431 43.8345C28.698 43.8309 26.7794 43.383 25.0337 42.5251C23.2881 41.6671 21.7615 40.4217 20.5705 38.8838C19.3794 37.346 18.5554 35.5565 18.1613 33.6517C17.7672 31.7469 17.8134 29.7773 18.2965 27.8931C18.7795 26.0089 19.6866 24.26 20.9484 22.7798C22.2103 21.2995 23.7936 20.1271 25.5776 19.352C27.3616 18.5768 29.2991 18.2194 31.2422 18.3071C33.1854 18.3948 35.0828 18.9252 36.7897 19.8578L36.8145 19.8721C39.3002 21.2379 41.2606 23.3923 42.3864 25.9955C43.5122 28.5987 43.7393 31.5027 43.0319 34.2493C42.3245 36.9959 40.7229 39.4289 38.4797 41.1645C36.2365 42.9 33.4793 43.8394 30.6431 43.8345ZM30.2782 23.3305C28.9055 23.3325 27.5574 23.6946 26.3683 24.3806C25.1793 25.0665 24.191 26.0524 23.5022 27.2398V27.2476C22.4671 29.0436 22.1876 31.1772 22.7252 33.1792C23.2628 35.1812 24.5734 36.8878 26.369 37.9237L26.3924 37.9407C28.1866 38.9744 30.318 39.2532 32.3177 38.7155C34.3174 38.1779 36.0216 36.868 37.0555 35.0739L37.0464 35.0661C37.7323 33.8781 38.0936 32.5306 38.0939 31.1588C38.0943 29.7871 37.7337 28.4394 37.0484 27.2511C36.3632 26.0627 35.3773 25.0756 34.1899 24.3888C33.0024 23.702 31.6552 23.3397 30.2834 23.3383L30.2782 23.3305Z" fill="white"/>
<path d="M57.7513 46.1773L60.6181 41.1683L56.112 34.7376V27.7087L60.6129 21.2767L54.1157 9.93991L46.2594 10.6266L40.1701 7.12525L36.8485 0H23.7708L20.4493 7.12525L14.3626 10.6266L6.50368 9.93991L0 21.2767L4.50866 27.7087V34.7336L0 41.1657L6.49977 52.5025L14.3561 51.8157L20.4454 55.321L23.7669 62.445H36.7678V62.4528H36.8433L40.1636 55.3236L46.2594 51.8157L54.117 52.5038L54.5301 51.7858L51.1851 47.0191L44.5836 46.4418L36.356 51.189L33.5361 57.2405H33.4162V57.2327H27.1041L24.2842 51.1824L16.0488 46.4379L9.38219 47.0204L6.18312 41.4445L10.0129 35.9716V26.4695L6.18312 20.9966L9.38219 15.4194L16.0501 16.0005L24.2803 11.2586L27.1041 5.21233H33.5478L36.3638 11.2586L44.5967 16.0005L51.2632 15.4194L54.461 20.9966L50.6325 26.4695V35.9742L54.4636 41.4471L54.4545 41.4641L57.7513 46.1773Z" fill="white"/>
</svg>
