<svg width="40" height="40" viewBox="0 0 40 40" fill="none" xmlns="http://www.w3.org/2000/svg">
<circle cx="20" cy="20" r="20" fill="white"/>
<path d="M23.8075 28.0316C23.0941 28.0315 22.3968 27.8199 21.8037 27.4235C21.2106 27.0272 20.7483 26.4638 20.4754 25.8047C20.2024 25.1456 20.1311 24.4204 20.2703 23.7208C20.4095 23.0211 20.753 22.3785 21.2575 21.8741C21.7619 21.3697 22.4046 21.0262 23.1043 20.887C23.8039 20.7479 24.5292 20.8193 25.1882 21.0923C25.8473 21.3653 26.4106 21.8277 26.8069 22.4208C27.2032 23.0139 27.4147 23.7113 27.4147 24.4247C27.4137 25.381 27.0333 26.2979 26.357 26.9741C25.6808 27.6503 24.7639 28.0306 23.8075 28.0316ZM23.8075 22.1325C23.3542 22.1325 22.911 22.2669 22.534 22.5188C22.1571 22.7707 21.8633 23.1286 21.6898 23.5475C21.5163 23.9663 21.4709 24.4272 21.5594 24.8718C21.6478 25.3165 21.8661 25.7249 22.1867 26.0455C22.5073 26.366 22.9157 26.5843 23.3603 26.6728C23.805 26.7612 24.2658 26.7158 24.6847 26.5423C25.1035 26.3689 25.4615 26.0751 25.7134 25.6981C25.9652 25.3212 26.0997 24.878 26.0997 24.4247C26.099 23.8169 25.8573 23.2343 25.4275 22.8046C24.9978 22.3749 24.4152 22.1332 23.8075 22.1325Z" fill="#4C5059"/>
<path d="M15.6465 20.4794V29.7138L16.933 31H29.338V29.6849H16.9616V20.4794H19.9205C20.0287 20.4794 20.1353 20.4526 20.2307 20.4015C20.3262 20.3504 20.4075 20.2766 20.4675 20.1865L22.2448 17.5205H25.3698L27.1471 20.1865C27.2071 20.2766 27.2885 20.3504 27.3839 20.4015C27.4793 20.4526 27.5859 20.4794 27.6942 20.4794H30.6531V31H30.6833L31.9681 29.7151V20.4768L30.6547 19.1643H28.0459L26.2686 16.4984C26.2086 16.4083 26.1273 16.3344 26.0318 16.2833C25.9364 16.2322 25.8298 16.2055 25.7216 16.2054H21.8931C21.7848 16.2055 21.6782 16.2322 21.5828 16.2833C21.4874 16.3344 21.406 16.4083 21.346 16.4984L19.5687 19.1643H16.9616L15.6465 20.4794Z" fill="#4C5059"/>
<rect x="8" y="7" width="8" height="1" fill="#4C5059"/>
<rect x="24" y="7" width="8" height="1" fill="#4C5059"/>
<rect x="8" y="30" width="8" height="1" fill="#4C5059"/>
<rect x="8" y="31" width="8" height="1" transform="rotate(-90 8 31)" fill="#4C5059"/>
<rect x="8" y="15" width="8" height="1" transform="rotate(-90 8 15)" fill="#4C5059"/>
<rect x="31" y="15" width="8" height="1" transform="rotate(-90 31 15)" fill="#4C5059"/>
</svg>
